<mxfile host="app.diagrams.net" modified="2024-03-28T13:37:32.047Z" agent="Mozilla/5.0 (Windows NT 10.0; Win64; x64; rv:124.0) Gecko/20100101 Firefox/124.0" etag="fkZIiQRJ5Q-g1X5hFYQN" version="24.0.6" type="github">
  <diagram id="C5RBs43oDa-KdzZeNtuy" name="Page-1">
    <mxGraphModel dx="2876" dy="2246" grid="1" gridSize="10" guides="1" tooltips="1" connect="1" arrows="1" fold="1" page="1" pageScale="1" pageWidth="827" pageHeight="1169" math="0" shadow="0">
      <root>
        <mxCell id="WIyWlLk6GJQsqaUBKTNV-0" />
        <mxCell id="WIyWlLk6GJQsqaUBKTNV-1" parent="WIyWlLk6GJQsqaUBKTNV-0" />
        <mxCell id="8ULVd8c7w-48PSzi_YBc-0" value="原始配表目录" style="rounded=0;whiteSpace=wrap;html=1;" vertex="1" parent="WIyWlLk6GJQsqaUBKTNV-1">
          <mxGeometry x="70" y="330" width="120" height="60" as="geometry" />
        </mxCell>
        <mxCell id="8ULVd8c7w-48PSzi_YBc-4" style="edgeStyle=orthogonalEdgeStyle;rounded=0;orthogonalLoop=1;jettySize=auto;html=1;entryX=0.5;entryY=0;entryDx=0;entryDy=0;" edge="1" parent="WIyWlLk6GJQsqaUBKTNV-1" source="8ULVd8c7w-48PSzi_YBc-1" target="8ULVd8c7w-48PSzi_YBc-0">
          <mxGeometry relative="1" as="geometry" />
        </mxCell>
        <mxCell id="8ULVd8c7w-48PSzi_YBc-5" value="检测配表版本" style="edgeLabel;html=1;align=center;verticalAlign=middle;resizable=0;points=[];" vertex="1" connectable="0" parent="8ULVd8c7w-48PSzi_YBc-4">
          <mxGeometry x="-0.476" y="-3" relative="1" as="geometry">
            <mxPoint as="offset" />
          </mxGeometry>
        </mxCell>
        <mxCell id="8ULVd8c7w-48PSzi_YBc-6" style="edgeStyle=orthogonalEdgeStyle;rounded=0;orthogonalLoop=1;jettySize=auto;html=1;entryX=0.5;entryY=0;entryDx=0;entryDy=0;" edge="1" parent="WIyWlLk6GJQsqaUBKTNV-1" source="8ULVd8c7w-48PSzi_YBc-1" target="8ULVd8c7w-48PSzi_YBc-2">
          <mxGeometry relative="1" as="geometry" />
        </mxCell>
        <mxCell id="8ULVd8c7w-48PSzi_YBc-7" value="配表需要更新时" style="edgeLabel;html=1;align=center;verticalAlign=middle;resizable=0;points=[];" vertex="1" connectable="0" parent="8ULVd8c7w-48PSzi_YBc-6">
          <mxGeometry x="-0.0643" relative="1" as="geometry">
            <mxPoint as="offset" />
          </mxGeometry>
        </mxCell>
        <mxCell id="8ULVd8c7w-48PSzi_YBc-1" value="版本检测器" style="rounded=0;whiteSpace=wrap;html=1;" vertex="1" parent="WIyWlLk6GJQsqaUBKTNV-1">
          <mxGeometry x="370" y="150" width="130" height="60" as="geometry" />
        </mxCell>
        <mxCell id="8ULVd8c7w-48PSzi_YBc-8" style="edgeStyle=orthogonalEdgeStyle;rounded=0;orthogonalLoop=1;jettySize=auto;html=1;entryX=1;entryY=0.5;entryDx=0;entryDy=0;" edge="1" parent="WIyWlLk6GJQsqaUBKTNV-1" source="8ULVd8c7w-48PSzi_YBc-2" target="8ULVd8c7w-48PSzi_YBc-0">
          <mxGeometry relative="1" as="geometry" />
        </mxCell>
        <mxCell id="8ULVd8c7w-48PSzi_YBc-13" value="读取配表的数据" style="edgeLabel;html=1;align=center;verticalAlign=middle;resizable=0;points=[];" vertex="1" connectable="0" parent="8ULVd8c7w-48PSzi_YBc-8">
          <mxGeometry x="0.0286" y="-1" relative="1" as="geometry">
            <mxPoint as="offset" />
          </mxGeometry>
        </mxCell>
        <mxCell id="8ULVd8c7w-48PSzi_YBc-20" style="edgeStyle=orthogonalEdgeStyle;rounded=0;orthogonalLoop=1;jettySize=auto;html=1;entryX=0;entryY=0.5;entryDx=0;entryDy=0;" edge="1" parent="WIyWlLk6GJQsqaUBKTNV-1" source="8ULVd8c7w-48PSzi_YBc-2" target="8ULVd8c7w-48PSzi_YBc-18">
          <mxGeometry relative="1" as="geometry" />
        </mxCell>
        <mxCell id="8ULVd8c7w-48PSzi_YBc-25" value="数据读取完发送数据" style="edgeLabel;html=1;align=center;verticalAlign=middle;resizable=0;points=[];" vertex="1" connectable="0" parent="8ULVd8c7w-48PSzi_YBc-20">
          <mxGeometry x="-0.0816" y="2" relative="1" as="geometry">
            <mxPoint as="offset" />
          </mxGeometry>
        </mxCell>
        <mxCell id="8ULVd8c7w-48PSzi_YBc-49" style="edgeStyle=orthogonalEdgeStyle;rounded=0;orthogonalLoop=1;jettySize=auto;html=1;exitX=0.5;exitY=1;exitDx=0;exitDy=0;" edge="1" parent="WIyWlLk6GJQsqaUBKTNV-1" source="8ULVd8c7w-48PSzi_YBc-2" target="8ULVd8c7w-48PSzi_YBc-48">
          <mxGeometry relative="1" as="geometry" />
        </mxCell>
        <mxCell id="8ULVd8c7w-48PSzi_YBc-50" value="读取模板信息" style="edgeLabel;html=1;align=center;verticalAlign=middle;resizable=0;points=[];" vertex="1" connectable="0" parent="8ULVd8c7w-48PSzi_YBc-49">
          <mxGeometry x="-0.0667" y="-1" relative="1" as="geometry">
            <mxPoint as="offset" />
          </mxGeometry>
        </mxCell>
        <mxCell id="8ULVd8c7w-48PSzi_YBc-2" value="数据读取器" style="rounded=0;whiteSpace=wrap;html=1;" vertex="1" parent="WIyWlLk6GJQsqaUBKTNV-1">
          <mxGeometry x="375" y="330" width="120" height="60" as="geometry" />
        </mxCell>
        <mxCell id="8ULVd8c7w-48PSzi_YBc-15" style="edgeStyle=orthogonalEdgeStyle;rounded=0;orthogonalLoop=1;jettySize=auto;html=1;entryX=0.5;entryY=0;entryDx=0;entryDy=0;" edge="1" parent="WIyWlLk6GJQsqaUBKTNV-1" source="8ULVd8c7w-48PSzi_YBc-14" target="8ULVd8c7w-48PSzi_YBc-1">
          <mxGeometry relative="1" as="geometry" />
        </mxCell>
        <mxCell id="8ULVd8c7w-48PSzi_YBc-16" value="手动触发版本检测" style="edgeLabel;html=1;align=center;verticalAlign=middle;resizable=0;points=[];" vertex="1" connectable="0" parent="8ULVd8c7w-48PSzi_YBc-15">
          <mxGeometry x="-0.2429" relative="1" as="geometry">
            <mxPoint as="offset" />
          </mxGeometry>
        </mxCell>
        <mxCell id="8ULVd8c7w-48PSzi_YBc-14" value="更新版本按钮" style="rounded=0;whiteSpace=wrap;html=1;" vertex="1" parent="WIyWlLk6GJQsqaUBKTNV-1">
          <mxGeometry x="375" y="-30" width="120" height="60" as="geometry" />
        </mxCell>
        <mxCell id="8ULVd8c7w-48PSzi_YBc-30" style="edgeStyle=orthogonalEdgeStyle;rounded=0;orthogonalLoop=1;jettySize=auto;html=1;entryX=0;entryY=0.5;entryDx=0;entryDy=0;" edge="1" parent="WIyWlLk6GJQsqaUBKTNV-1" source="8ULVd8c7w-48PSzi_YBc-17" target="8ULVd8c7w-48PSzi_YBc-23">
          <mxGeometry relative="1" as="geometry" />
        </mxCell>
        <mxCell id="8ULVd8c7w-48PSzi_YBc-31" value="更新或者保存配表数据" style="edgeLabel;html=1;align=center;verticalAlign=middle;resizable=0;points=[];" vertex="1" connectable="0" parent="8ULVd8c7w-48PSzi_YBc-30">
          <mxGeometry x="-0.1389" relative="1" as="geometry">
            <mxPoint as="offset" />
          </mxGeometry>
        </mxCell>
        <mxCell id="8ULVd8c7w-48PSzi_YBc-37" style="edgeStyle=orthogonalEdgeStyle;rounded=0;orthogonalLoop=1;jettySize=auto;html=1;entryX=0.5;entryY=1;entryDx=0;entryDy=0;" edge="1" parent="WIyWlLk6GJQsqaUBKTNV-1" source="8ULVd8c7w-48PSzi_YBc-17" target="8ULVd8c7w-48PSzi_YBc-36">
          <mxGeometry relative="1" as="geometry" />
        </mxCell>
        <mxCell id="8ULVd8c7w-48PSzi_YBc-38" value="保存错误信息" style="edgeLabel;html=1;align=center;verticalAlign=middle;resizable=0;points=[];" vertex="1" connectable="0" parent="8ULVd8c7w-48PSzi_YBc-37">
          <mxGeometry x="0.0333" y="1" relative="1" as="geometry">
            <mxPoint as="offset" />
          </mxGeometry>
        </mxCell>
        <mxCell id="8ULVd8c7w-48PSzi_YBc-17" value="数据存储器" style="rounded=0;whiteSpace=wrap;html=1;" vertex="1" parent="WIyWlLk6GJQsqaUBKTNV-1">
          <mxGeometry x="950" y="330" width="120" height="60" as="geometry" />
        </mxCell>
        <mxCell id="8ULVd8c7w-48PSzi_YBc-21" style="edgeStyle=orthogonalEdgeStyle;rounded=0;orthogonalLoop=1;jettySize=auto;html=1;entryX=0;entryY=0.5;entryDx=0;entryDy=0;" edge="1" parent="WIyWlLk6GJQsqaUBKTNV-1" source="8ULVd8c7w-48PSzi_YBc-18" target="8ULVd8c7w-48PSzi_YBc-17">
          <mxGeometry relative="1" as="geometry" />
        </mxCell>
        <mxCell id="8ULVd8c7w-48PSzi_YBc-26" value="数据解析完发送配表数据" style="edgeLabel;html=1;align=center;verticalAlign=middle;resizable=0;points=[];" vertex="1" connectable="0" parent="8ULVd8c7w-48PSzi_YBc-21">
          <mxGeometry x="-0.0464" y="1" relative="1" as="geometry">
            <mxPoint as="offset" />
          </mxGeometry>
        </mxCell>
        <mxCell id="8ULVd8c7w-48PSzi_YBc-52" style="edgeStyle=orthogonalEdgeStyle;rounded=0;orthogonalLoop=1;jettySize=auto;html=1;exitX=0.5;exitY=1;exitDx=0;exitDy=0;entryX=0;entryY=0.5;entryDx=0;entryDy=0;" edge="1" parent="WIyWlLk6GJQsqaUBKTNV-1" source="8ULVd8c7w-48PSzi_YBc-18" target="8ULVd8c7w-48PSzi_YBc-22">
          <mxGeometry relative="1" as="geometry" />
        </mxCell>
        <mxCell id="8ULVd8c7w-48PSzi_YBc-53" value="发送检测规则数据" style="edgeLabel;html=1;align=center;verticalAlign=middle;resizable=0;points=[];" vertex="1" connectable="0" parent="8ULVd8c7w-48PSzi_YBc-52">
          <mxGeometry x="0.1897" y="3" relative="1" as="geometry">
            <mxPoint as="offset" />
          </mxGeometry>
        </mxCell>
        <mxCell id="8ULVd8c7w-48PSzi_YBc-18" value="数据解析器" style="rounded=0;whiteSpace=wrap;html=1;" vertex="1" parent="WIyWlLk6GJQsqaUBKTNV-1">
          <mxGeometry x="650" y="330" width="120" height="60" as="geometry" />
        </mxCell>
        <mxCell id="8ULVd8c7w-48PSzi_YBc-32" style="edgeStyle=orthogonalEdgeStyle;rounded=0;orthogonalLoop=1;jettySize=auto;html=1;entryX=0.5;entryY=1;entryDx=0;entryDy=0;" edge="1" parent="WIyWlLk6GJQsqaUBKTNV-1" source="8ULVd8c7w-48PSzi_YBc-22" target="8ULVd8c7w-48PSzi_YBc-23">
          <mxGeometry relative="1" as="geometry" />
        </mxCell>
        <mxCell id="8ULVd8c7w-48PSzi_YBc-33" value="读取数据" style="edgeLabel;html=1;align=center;verticalAlign=middle;resizable=0;points=[];" vertex="1" connectable="0" parent="8ULVd8c7w-48PSzi_YBc-32">
          <mxGeometry x="-0.3304" y="-1" relative="1" as="geometry">
            <mxPoint as="offset" />
          </mxGeometry>
        </mxCell>
        <mxCell id="8ULVd8c7w-48PSzi_YBc-34" style="edgeStyle=orthogonalEdgeStyle;rounded=0;orthogonalLoop=1;jettySize=auto;html=1;entryX=0.5;entryY=1;entryDx=0;entryDy=0;" edge="1" parent="WIyWlLk6GJQsqaUBKTNV-1" source="8ULVd8c7w-48PSzi_YBc-22" target="8ULVd8c7w-48PSzi_YBc-17">
          <mxGeometry relative="1" as="geometry" />
        </mxCell>
        <mxCell id="8ULVd8c7w-48PSzi_YBc-35" value="错误信息输出" style="edgeLabel;html=1;align=center;verticalAlign=middle;resizable=0;points=[];" vertex="1" connectable="0" parent="8ULVd8c7w-48PSzi_YBc-34">
          <mxGeometry x="0.2167" relative="1" as="geometry">
            <mxPoint as="offset" />
          </mxGeometry>
        </mxCell>
        <mxCell id="8ULVd8c7w-48PSzi_YBc-22" value="规则检测器" style="rounded=0;whiteSpace=wrap;html=1;" vertex="1" parent="WIyWlLk6GJQsqaUBKTNV-1">
          <mxGeometry x="950" y="510" width="120" height="60" as="geometry" />
        </mxCell>
        <mxCell id="8ULVd8c7w-48PSzi_YBc-23" value="实际任务读取的数据" style="rounded=0;whiteSpace=wrap;html=1;" vertex="1" parent="WIyWlLk6GJQsqaUBKTNV-1">
          <mxGeometry x="1241" y="330" width="120" height="60" as="geometry" />
        </mxCell>
        <mxCell id="8ULVd8c7w-48PSzi_YBc-28" style="edgeStyle=orthogonalEdgeStyle;rounded=0;orthogonalLoop=1;jettySize=auto;html=1;entryX=1;entryY=0.5;entryDx=0;entryDy=0;" edge="1" parent="WIyWlLk6GJQsqaUBKTNV-1" source="8ULVd8c7w-48PSzi_YBc-27" target="8ULVd8c7w-48PSzi_YBc-1">
          <mxGeometry relative="1" as="geometry" />
        </mxCell>
        <mxCell id="8ULVd8c7w-48PSzi_YBc-29" value="关闭实时检测" style="edgeLabel;html=1;align=center;verticalAlign=middle;resizable=0;points=[];" vertex="1" connectable="0" parent="8ULVd8c7w-48PSzi_YBc-28">
          <mxGeometry x="0.2648" relative="1" as="geometry">
            <mxPoint as="offset" />
          </mxGeometry>
        </mxCell>
        <mxCell id="8ULVd8c7w-48PSzi_YBc-27" value="实时检测任务关闭按钮" style="rounded=0;whiteSpace=wrap;html=1;" vertex="1" parent="WIyWlLk6GJQsqaUBKTNV-1">
          <mxGeometry x="650" y="150" width="120" height="60" as="geometry" />
        </mxCell>
        <mxCell id="8ULVd8c7w-48PSzi_YBc-36" value="错误信息" style="rounded=0;whiteSpace=wrap;html=1;" vertex="1" parent="WIyWlLk6GJQsqaUBKTNV-1">
          <mxGeometry x="950" y="150" width="120" height="60" as="geometry" />
        </mxCell>
        <mxCell id="8ULVd8c7w-48PSzi_YBc-40" style="edgeStyle=orthogonalEdgeStyle;rounded=0;orthogonalLoop=1;jettySize=auto;html=1;entryX=0.5;entryY=0;entryDx=0;entryDy=0;" edge="1" parent="WIyWlLk6GJQsqaUBKTNV-1" source="8ULVd8c7w-48PSzi_YBc-39" target="8ULVd8c7w-48PSzi_YBc-36">
          <mxGeometry relative="1" as="geometry" />
        </mxCell>
        <mxCell id="8ULVd8c7w-48PSzi_YBc-41" value="读取错误信息" style="edgeLabel;html=1;align=center;verticalAlign=middle;resizable=0;points=[];" vertex="1" connectable="0" parent="8ULVd8c7w-48PSzi_YBc-40">
          <mxGeometry x="-0.3" relative="1" as="geometry">
            <mxPoint as="offset" />
          </mxGeometry>
        </mxCell>
        <mxCell id="8ULVd8c7w-48PSzi_YBc-43" style="edgeStyle=orthogonalEdgeStyle;rounded=0;orthogonalLoop=1;jettySize=auto;html=1;entryX=0;entryY=0.5;entryDx=0;entryDy=0;" edge="1" parent="WIyWlLk6GJQsqaUBKTNV-1" source="8ULVd8c7w-48PSzi_YBc-39" target="8ULVd8c7w-48PSzi_YBc-42">
          <mxGeometry relative="1" as="geometry" />
        </mxCell>
        <mxCell id="8ULVd8c7w-48PSzi_YBc-44" value="发送错误数据" style="edgeLabel;html=1;align=center;verticalAlign=middle;resizable=0;points=[];" vertex="1" connectable="0" parent="8ULVd8c7w-48PSzi_YBc-43">
          <mxGeometry x="-0.0994" y="2" relative="1" as="geometry">
            <mxPoint as="offset" />
          </mxGeometry>
        </mxCell>
        <mxCell id="8ULVd8c7w-48PSzi_YBc-39" value="数据读取器" style="rounded=0;whiteSpace=wrap;html=1;" vertex="1" parent="WIyWlLk6GJQsqaUBKTNV-1">
          <mxGeometry x="950" y="10" width="120" height="60" as="geometry" />
        </mxCell>
        <mxCell id="8ULVd8c7w-48PSzi_YBc-46" style="edgeStyle=orthogonalEdgeStyle;rounded=0;orthogonalLoop=1;jettySize=auto;html=1;" edge="1" parent="WIyWlLk6GJQsqaUBKTNV-1" source="8ULVd8c7w-48PSzi_YBc-42" target="8ULVd8c7w-48PSzi_YBc-45">
          <mxGeometry relative="1" as="geometry" />
        </mxCell>
        <mxCell id="8ULVd8c7w-48PSzi_YBc-47" value="发送展示数据" style="edgeLabel;html=1;align=center;verticalAlign=middle;resizable=0;points=[];" vertex="1" connectable="0" parent="8ULVd8c7w-48PSzi_YBc-46">
          <mxGeometry x="-0.1367" y="-1" relative="1" as="geometry">
            <mxPoint as="offset" />
          </mxGeometry>
        </mxCell>
        <mxCell id="8ULVd8c7w-48PSzi_YBc-42" value="数据解析器" style="rounded=0;whiteSpace=wrap;html=1;" vertex="1" parent="WIyWlLk6GJQsqaUBKTNV-1">
          <mxGeometry x="1241" y="10" width="120" height="60" as="geometry" />
        </mxCell>
        <mxCell id="8ULVd8c7w-48PSzi_YBc-45" value="前端" style="rounded=0;whiteSpace=wrap;html=1;" vertex="1" parent="WIyWlLk6GJQsqaUBKTNV-1">
          <mxGeometry x="1500" y="10" width="120" height="60" as="geometry" />
        </mxCell>
        <mxCell id="8ULVd8c7w-48PSzi_YBc-71" style="edgeStyle=orthogonalEdgeStyle;rounded=0;orthogonalLoop=1;jettySize=auto;html=1;entryX=1;entryY=0.5;entryDx=0;entryDy=0;" edge="1" parent="WIyWlLk6GJQsqaUBKTNV-1" source="8ULVd8c7w-48PSzi_YBc-48" target="8ULVd8c7w-48PSzi_YBc-70">
          <mxGeometry relative="1" as="geometry" />
        </mxCell>
        <mxCell id="8ULVd8c7w-48PSzi_YBc-48" value="规则模板" style="rounded=0;whiteSpace=wrap;html=1;" vertex="1" parent="WIyWlLk6GJQsqaUBKTNV-1">
          <mxGeometry x="375" y="510" width="120" height="60" as="geometry" />
        </mxCell>
        <mxCell id="8ULVd8c7w-48PSzi_YBc-54" value="上传的模板文件" style="rounded=0;whiteSpace=wrap;html=1;" vertex="1" parent="WIyWlLk6GJQsqaUBKTNV-1">
          <mxGeometry x="170" y="900" width="120" height="60" as="geometry" />
        </mxCell>
        <mxCell id="8ULVd8c7w-48PSzi_YBc-55" value="手动配置的数据" style="rounded=0;whiteSpace=wrap;html=1;" vertex="1" parent="WIyWlLk6GJQsqaUBKTNV-1">
          <mxGeometry x="600" y="900" width="120" height="60" as="geometry" />
        </mxCell>
        <mxCell id="8ULVd8c7w-48PSzi_YBc-59" style="edgeStyle=orthogonalEdgeStyle;rounded=0;orthogonalLoop=1;jettySize=auto;html=1;entryX=0.5;entryY=1;entryDx=0;entryDy=0;" edge="1" parent="WIyWlLk6GJQsqaUBKTNV-1" source="8ULVd8c7w-48PSzi_YBc-56" target="8ULVd8c7w-48PSzi_YBc-57">
          <mxGeometry relative="1" as="geometry" />
        </mxCell>
        <mxCell id="8ULVd8c7w-48PSzi_YBc-68" value="模板数据未格式化" style="edgeLabel;html=1;align=center;verticalAlign=middle;resizable=0;points=[];" vertex="1" connectable="0" parent="8ULVd8c7w-48PSzi_YBc-59">
          <mxGeometry x="0.1714" y="-2" relative="1" as="geometry">
            <mxPoint as="offset" />
          </mxGeometry>
        </mxCell>
        <mxCell id="8ULVd8c7w-48PSzi_YBc-64" style="edgeStyle=orthogonalEdgeStyle;rounded=0;orthogonalLoop=1;jettySize=auto;html=1;entryX=0.5;entryY=0;entryDx=0;entryDy=0;" edge="1" parent="WIyWlLk6GJQsqaUBKTNV-1" source="8ULVd8c7w-48PSzi_YBc-56" target="8ULVd8c7w-48PSzi_YBc-54">
          <mxGeometry relative="1" as="geometry" />
        </mxCell>
        <mxCell id="8ULVd8c7w-48PSzi_YBc-66" value="读取数据" style="edgeLabel;html=1;align=center;verticalAlign=middle;resizable=0;points=[];" vertex="1" connectable="0" parent="8ULVd8c7w-48PSzi_YBc-64">
          <mxGeometry x="-0.1911" y="5" relative="1" as="geometry">
            <mxPoint as="offset" />
          </mxGeometry>
        </mxCell>
        <mxCell id="8ULVd8c7w-48PSzi_YBc-65" style="edgeStyle=orthogonalEdgeStyle;rounded=0;orthogonalLoop=1;jettySize=auto;html=1;exitX=1;exitY=0.5;exitDx=0;exitDy=0;entryX=0.5;entryY=0;entryDx=0;entryDy=0;" edge="1" parent="WIyWlLk6GJQsqaUBKTNV-1" source="8ULVd8c7w-48PSzi_YBc-56" target="8ULVd8c7w-48PSzi_YBc-55">
          <mxGeometry relative="1" as="geometry" />
        </mxCell>
        <mxCell id="8ULVd8c7w-48PSzi_YBc-67" value="读取数据" style="edgeLabel;html=1;align=center;verticalAlign=middle;resizable=0;points=[];" vertex="1" connectable="0" parent="8ULVd8c7w-48PSzi_YBc-65">
          <mxGeometry x="-0.3224" y="-4" relative="1" as="geometry">
            <mxPoint as="offset" />
          </mxGeometry>
        </mxCell>
        <mxCell id="8ULVd8c7w-48PSzi_YBc-56" value="数据读取器" style="rounded=0;whiteSpace=wrap;html=1;" vertex="1" parent="WIyWlLk6GJQsqaUBKTNV-1">
          <mxGeometry x="375" y="790" width="120" height="60" as="geometry" />
        </mxCell>
        <mxCell id="8ULVd8c7w-48PSzi_YBc-58" style="edgeStyle=orthogonalEdgeStyle;rounded=0;orthogonalLoop=1;jettySize=auto;html=1;exitX=0.5;exitY=0;exitDx=0;exitDy=0;entryX=0.5;entryY=1;entryDx=0;entryDy=0;" edge="1" parent="WIyWlLk6GJQsqaUBKTNV-1" source="8ULVd8c7w-48PSzi_YBc-57" target="8ULVd8c7w-48PSzi_YBc-48">
          <mxGeometry relative="1" as="geometry" />
        </mxCell>
        <mxCell id="8ULVd8c7w-48PSzi_YBc-69" value="格式化之后的模板文件" style="edgeLabel;html=1;align=center;verticalAlign=middle;resizable=0;points=[];" vertex="1" connectable="0" parent="8ULVd8c7w-48PSzi_YBc-58">
          <mxGeometry x="0.0444" y="1" relative="1" as="geometry">
            <mxPoint as="offset" />
          </mxGeometry>
        </mxCell>
        <mxCell id="8ULVd8c7w-48PSzi_YBc-57" value="数据解析器" style="rounded=0;whiteSpace=wrap;html=1;" vertex="1" parent="WIyWlLk6GJQsqaUBKTNV-1">
          <mxGeometry x="375" y="660" width="120" height="60" as="geometry" />
        </mxCell>
        <mxCell id="8ULVd8c7w-48PSzi_YBc-72" style="edgeStyle=orthogonalEdgeStyle;rounded=0;orthogonalLoop=1;jettySize=auto;html=1;" edge="1" parent="WIyWlLk6GJQsqaUBKTNV-1" source="8ULVd8c7w-48PSzi_YBc-70" target="8ULVd8c7w-48PSzi_YBc-73">
          <mxGeometry relative="1" as="geometry">
            <mxPoint x="-110" y="540" as="targetPoint" />
          </mxGeometry>
        </mxCell>
        <mxCell id="8ULVd8c7w-48PSzi_YBc-70" value="数据存储器" style="rounded=0;whiteSpace=wrap;html=1;" vertex="1" parent="WIyWlLk6GJQsqaUBKTNV-1">
          <mxGeometry x="70" y="510" width="120" height="60" as="geometry" />
        </mxCell>
        <mxCell id="8ULVd8c7w-48PSzi_YBc-73" value="导出的模板" style="rounded=0;whiteSpace=wrap;html=1;" vertex="1" parent="WIyWlLk6GJQsqaUBKTNV-1">
          <mxGeometry x="-200" y="510" width="120" height="60" as="geometry" />
        </mxCell>
      </root>
    </mxGraphModel>
  </diagram>
</mxfile>
